<svg xmlns="http://www.w3.org/2000/svg" shape-rendering="geometricPrecision" text-rendering="geometricPrecision" image-rendering="optimizeQuality" fill-rule="evenodd" clip-rule="evenodd" viewBox="0 0 264 512.767"><path d="M84.876 0h95.202c8.895 0 16.172 7.278 16.172 16.173v183.909H68.7V16.176C68.7 7.279 75.979 0 84.876 0zm150.672 340.666a5.324 5.324 0 01-10.612.873c-.712-8.451-2.127-16.505-4.478-23.928-2.311-7.294-5.514-13.965-9.831-19.779-5.579-7.514-14.021-13.701-24.045-18.606-11.586-5.669-25.241-9.596-39.09-11.875a5.313 5.313 0 011.706-10.488c14.784 2.434 29.458 6.674 42.046 12.833 11.485 5.62 21.267 12.857 27.914 21.81 5.085 6.848 8.813 14.562 11.454 22.901 2.601 8.21 4.16 17.042 4.936 26.259zM88.37 241.063c-13.751 2.286-27.296 6.198-38.803 11.828-10.024 4.905-18.465 11.092-24.044 18.605-23.38 31.488-14.122 87.338-6.521 133.189 2.001 12.075 3.892 23.481 5.056 33.522.918 7.922 1.698 15.585 2.273 22.864.569 7.197.944 14.211 1.062 20.982v.083h.02v3.298c0 4.595 1.872 8.762 4.886 11.776 3.026 3.025 7.204 4.903 11.801 4.903h175.799c4.597 0 8.775-1.878 11.801-4.903a16.614 16.614 0 004.885-11.776v-3.232c0-.191.01-.379.03-.564.126-6.63.496-13.492 1.051-20.53.576-7.29 1.357-14.965 2.276-22.901 1.164-10.041 3.055-21.447 5.056-33.522 7.601-45.851 16.859-101.701-6.521-133.189-5.579-7.513-14.02-13.7-24.044-18.605-11.507-5.63-25.054-9.543-38.805-11.828A683.345 683.345 0 00132 239.676a702.398 702.398 0 00-43.63 1.387zm-43.464 2.298c10.638-5.206 22.766-9.04 35.191-11.572H68.7v-25.931h127.55v25.931h-12.345c12.424 2.532 24.552 6.367 35.189 11.572 11.485 5.619 21.267 12.857 27.915 21.809 26.066 35.107 16.407 93.381 8.477 141.221-1.957 11.809-3.807 22.962-4.973 33.023-.897 7.741-1.663 15.281-2.235 22.527-.564 7.149-.935 13.831-1.052 19.895.009.121.013.243.013.366v3.232c0 7.509-3.082 14.344-8.048 19.308-4.952 4.951-11.783 8.025-19.292 8.025H44.1c-7.509 0-14.34-3.074-19.293-8.025-4.965-4.964-8.047-11.799-8.047-19.308v-3.298h.019c-.109-6.151-.484-12.948-1.06-20.232-.571-7.234-1.336-14.763-2.232-22.49-1.166-10.061-3.016-21.214-4.973-33.023-7.93-47.84-17.589-106.114 8.477-141.221 6.648-8.952 16.43-16.19 27.915-21.809z"/></svg>